<?xml version="1.0" encoding="UTF-8"?>
<svg id="Layer_2" data-name="Layer 2" xmlns="http://www.w3.org/2000/svg" xmlns:xlink="http://www.w3.org/1999/xlink" viewBox="0 0 3556.24 954.85">
  <defs>
    <style>
      .cls-1 {
        fill: #393893;
      }

      .cls-2 {
        fill: url(#radial-gradient);
        opacity: .6;
      }

      .cls-3 {
        fill: #373742;
      }
    </style>
    <radialGradient id="radial-gradient" cx="1778.12" cy="635.58" fx="1778.12" fy="635.58" r="489.5" gradientUnits="userSpaceOnUse">
      <stop offset="0" stop-color="#393893"/>
      <stop offset=".22" stop-color="#3b3a94"/>
      <stop offset=".36" stop-color="#444399"/>
      <stop offset=".49" stop-color="#5352a1"/>
      <stop offset=".6" stop-color="#6968ad"/>
      <stop offset=".71" stop-color="#8484bc"/>
      <stop offset=".81" stop-color="#a6a6ce"/>
      <stop offset=".91" stop-color="#cecee4"/>
      <stop offset=".99" stop-color="#fcfcfd"/>
      <stop offset="1" stop-color="#fff"/>
    </radialGradient>
  </defs>
  <g id="Layer_1-2" data-name="Layer 1">
    <g>
      <path class="cls-3" d="m1128.17,6.93h90.19v409.34h253.92v76.31h-344.11V6.93Z"/>
      <path class="cls-3" d="m624.11,467.26c-39.78-21.51-71-51.35-93.65-89.5-22.68-38.16-34-80.82-34-128s11.32-89.85,34-128c22.66-38.16,53.88-67.99,93.65-89.5C663.89,10.76,708.52,0,758.01,0s94.11,10.76,133.89,32.26c39.78,21.51,71,51.23,93.65,89.15,22.66,37.93,34,80.72,34,128.35s-11.34,90.43-34,128.34c-22.66,37.93-53.88,67.65-93.65,89.16-39.78,21.51-84.41,32.26-133.89,32.26s-94.13-10.75-133.91-32.26Zm221.32-68.69c25.89-14.57,46.25-34.92,61.05-61.06,14.8-26.12,22.2-55.38,22.2-87.76s-7.4-61.63-22.2-87.77c-14.8-26.12-35.16-46.48-61.05-61.05-25.91-14.57-55.05-21.86-87.41-21.86s-61.52,7.29-87.41,21.86c-25.91,14.56-46.26,34.93-61.06,61.05-14.8,26.14-22.2,55.4-22.2,87.77s7.4,61.64,22.2,87.76c14.8,26.14,35.16,46.49,61.06,61.06,25.89,14.57,55.04,21.85,87.41,21.85s61.5-7.28,87.41-21.85Z"/>
      <path class="cls-3" d="m82.92,483.57c-34.93-10.64-62.56-24.74-82.92-42.32l31.24-70.07c19.88,15.73,44.28,28.56,73.18,38.5,28.92,9.95,57.94,14.92,87.08,14.92,36.07,0,63.02-5.77,80.82-17.34,17.81-11.56,26.72-26.82,26.72-45.79,0-13.88-4.99-25.32-14.92-34.35-9.95-9.02-22.55-16.07-37.81-21.15-15.26-5.09-36.07-10.86-62.44-17.35-37.02-8.78-66.95-17.57-89.86-26.36-22.89-8.78-42.56-22.55-58.96-41.28-16.44-18.74-24.64-44.06-24.64-75.97,0-26.82,7.29-51.22,21.87-73.2,14.57-21.96,36.53-39.43,65.9-52.38C127.55,6.49,163.51,0,206.07,0c29.58,0,58.73,3.71,87.42,11.1,28.67,7.41,53.42,18.04,74.23,31.91l-28.44,70.07c-21.29-12.49-43.49-21.96-66.6-28.44-23.13-6.48-45.56-9.72-67.31-9.72-35.61,0-62.09,6.02-79.44,18.04-17.35,12.03-26.01,27.98-26.01,47.86,0,13.88,4.96,25.22,14.92,34,9.93,8.8,22.53,15.73,37.81,20.82,15.26,5.09,36.07,10.87,62.44,17.34,36.07,8.32,65.67,17,88.8,26.02,23.12,9.02,42.89,22.79,59.31,41.28,16.42,18.5,24.64,43.48,24.64,74.93,0,26.83-7.29,51.12-21.87,72.85-14.57,21.74-36.65,39.08-66.25,52.03-29.6,12.95-65.69,19.42-108.23,19.42-37.46,0-73.67-5.32-108.58-15.95Z"/>
      <path class="cls-3" d="m2725.42,83.26h-160.96V6.93h412.1v76.32h-160.94v409.33h-90.19V83.26Z"/>
      <path class="cls-3" d="m2223.73,122.46c-22.2-36.77-53.42-65.22-93.65-85.34-40.24-20.12-86.27-30.18-138.07-30.18h-212.3v76.32h208.14c35.6,0,66.94,6.83,94.01,20.46,27.05,13.65,47.86,33.07,62.44,58.28,14.57,25.22,21.86,54.47,21.86,87.77s-7.29,62.56-21.86,87.76c-14.57,25.22-35.38,44.65-62.44,58.28-27.06,13.65-58.4,20.47-94.01,20.47h-117.95V153.33h-90.19v339.25h212.3c51.79,0,97.82-10.06,138.07-30.18,40.24-20.12,71.45-48.56,93.65-85.33,22.2-36.77,33.3-79.2,33.3-127.31s-11.1-90.54-33.3-127.31Z"/>
      <g>
        <polygon class="cls-1" points="3415 240.45 3556.24 6.93 3467.43 6.93 3370.87 166.02 3415 240.45"/>
        <polygon class="cls-3" points="3367.69 317.1 3310.68 221.65 3181.6 6.93 3085.17 6.93 3275.96 322.61 3275.96 492.59 3366.15 492.59 3366.15 321.22 3368.72 316.97 3367.69 317.1"/>
      </g>
      <path class="cls-3" d="m2365.65,6.93h90.19v485.65h-90.19V6.93Z"/>
      <path class="cls-3" d="m1580.9,6.93h90.19v485.65h-90.19V6.93Z"/>
    </g>
    <g>
      <path class="cls-1" d="m1224.18,835.75c-5,9.4-13,17.05-24,22.95-11,5.9-25.1,8.85-42.3,8.85h-37.8v84.6h-34.2v-208.5h72c16,0,29.55,2.75,40.65,8.25,11.1,5.5,19.4,12.95,24.9,22.35,5.5,9.4,8.25,19.9,8.25,31.5,0,10.6-2.5,20.6-7.5,30Zm-37.2-4.95c6.4-5.9,9.6-14.25,9.6-25.05,0-22.8-12.9-34.2-38.7-34.2h-37.8v68.1h37.8c13,0,22.7-2.95,29.1-8.85Z"/>
      <path class="cls-1" d="m1285.83,824.65c6.9-12.8,16.3-22.75,28.2-29.85,11.9-7.1,25.05-10.65,39.45-10.65,13,0,24.35,2.55,34.05,7.65,9.7,5.1,17.45,11.45,23.25,19.05v-24h34.5v165.3h-34.5v-24.6c-5.8,7.8-13.7,14.3-23.7,19.5-10,5.2-21.4,7.8-34.2,7.8-14.2,0-27.2-3.65-39-10.95-11.8-7.3-21.15-17.5-28.05-30.6-6.9-13.1-10.35-27.95-10.35-44.55s3.45-31.3,10.35-44.1Zm117.9,15c-4.7-8.4-10.85-14.8-18.45-19.2-7.6-4.4-15.8-6.6-24.6-6.6s-17,2.15-24.6,6.45c-7.6,4.3-13.75,10.6-18.45,18.9-4.7,8.3-7.05,18.15-7.05,29.55s2.35,21.4,7.05,30c4.7,8.6,10.9,15.15,18.6,19.65,7.7,4.5,15.85,6.75,24.45,6.75s17-2.2,24.6-6.6c7.6-4.4,13.75-10.85,18.45-19.35,4.7-8.5,7.05-18.45,7.05-29.85s-2.35-21.3-7.05-29.7Z"/>
      <path class="cls-1" d="m1566.92,791.2c8.3-4.7,18.15-7.05,29.55-7.05v35.4h-8.7c-13.4,0-23.55,3.4-30.45,10.2-6.9,6.8-10.35,18.6-10.35,35.4v87h-34.2v-165.3h34.2v24c5-8.4,11.65-14.95,19.95-19.65Z"/>
      <path class="cls-1" d="m1690.37,814.75v91.5c0,6.2,1.45,10.65,4.35,13.35,2.9,2.7,7.85,4.05,14.85,4.05h21v28.5h-27c-15.4,0-27.2-3.6-35.4-10.8-8.2-7.2-12.3-18.9-12.3-35.1v-91.5h-19.5v-27.9h19.5v-41.1h34.5v41.1h40.2v27.9h-40.2Z"/>
      <path class="cls-1" d="m1902.92,792.25c10.3,5.4,18.35,13.4,24.15,24,5.8,10.6,8.7,23.4,8.7,38.4v97.5h-33.9v-92.4c0-14.8-3.7-26.15-11.1-34.05-7.4-7.9-17.5-11.85-30.3-11.85s-22.95,3.95-30.45,11.85c-7.5,7.9-11.25,19.25-11.25,34.05v92.4h-34.2v-165.3h34.2v18.9c5.6-6.8,12.75-12.1,21.45-15.9,8.7-3.8,17.95-5.7,27.75-5.7,13,0,24.65,2.7,34.95,8.1Z"/>
      <path class="cls-1" d="m2152.07,882.25h-126.3c1,13.2,5.9,23.8,14.7,31.8,8.8,8,19.6,12,32.4,12,18.4,0,31.4-7.7,39-23.1h36.9c-5,15.2-14.05,27.65-27.15,37.35-13.1,9.7-29.35,14.55-48.75,14.55-15.8,0-29.95-3.55-42.45-10.65-12.5-7.1-22.3-17.1-29.4-30-7.1-12.9-10.65-27.85-10.65-44.85s3.45-31.95,10.35-44.85c6.9-12.9,16.6-22.85,29.1-29.85,12.5-7,26.85-10.5,43.05-10.5s29.5,3.4,41.7,10.2c12.2,6.8,21.7,16.35,28.5,28.65,6.8,12.3,10.2,26.45,10.2,42.45,0,6.2-.4,11.8-1.2,16.8Zm-34.5-27.6c-.2-12.6-4.7-22.7-13.5-30.3-8.8-7.6-19.7-11.4-32.7-11.4-11.8,0-21.9,3.75-30.3,11.25s-13.4,17.65-15,30.45h91.5Z"/>
      <path class="cls-1" d="m2263.51,791.2c8.3-4.7,18.15-7.05,29.55-7.05v35.4h-8.7c-13.4,0-23.55,3.4-30.45,10.2-6.9,6.8-10.35,18.6-10.35,35.4v87h-34.2v-165.3h34.2v24c5-8.4,11.65-14.95,19.95-19.65Z"/>
      <path class="cls-1" d="m2372.11,947.8c-10.3-4.7-18.45-11.1-24.45-19.2-6-8.1-9.2-17.15-9.6-27.15h35.4c.6,7,3.95,12.85,10.05,17.55,6.1,4.7,13.75,7.05,22.95,7.05s17.05-1.85,22.35-5.55c5.3-3.7,7.95-8.45,7.95-14.25,0-6.2-2.95-10.8-8.85-13.8-5.9-3-15.25-6.3-28.05-9.9-12.4-3.4-22.5-6.7-30.3-9.9-7.8-3.2-14.55-8.1-20.25-14.7-5.7-6.6-8.55-15.3-8.55-26.1,0-8.8,2.6-16.85,7.8-24.15,5.2-7.3,12.65-13.05,22.35-17.25,9.7-4.2,20.85-6.3,33.45-6.3,18.8,0,33.95,4.75,45.45,14.25,11.5,9.5,17.65,22.45,18.45,38.85h-34.2c-.6-7.4-3.6-13.3-9-17.7-5.4-4.4-12.7-6.6-21.9-6.6s-15.9,1.7-20.7,5.1c-4.8,3.4-7.2,7.9-7.2,13.5,0,4.4,1.6,8.1,4.8,11.1,3.2,3,7.1,5.35,11.7,7.05,4.6,1.7,11.4,3.85,20.4,6.45,12,3.2,21.85,6.45,29.55,9.75,7.7,3.3,14.35,8.15,19.95,14.55,5.6,6.4,8.5,14.9,8.7,25.5,0,9.4-2.6,17.8-7.8,25.2-5.2,7.4-12.55,13.2-22.05,17.4-9.5,4.2-20.65,6.3-33.45,6.3s-24.65-2.35-34.95-7.05Z"/>
    </g>
    <rect class="cls-2" x="1085.88" y="630.4" width="1384.48" height="10.36"/>
  </g>
</svg>